<svg xmlns="http://www.w3.org/2000/svg" xmlns:xlink="http://www.w3.org/1999/xlink" viewBox="0 0 209.98 380"><defs><style>.cls-1{isolation:isolate;}.cls-2{fill:#6e89c7;}.cls-3{fill:#33bdc7;}.cls-4{fill:#4a6cb8;}.cls-5{fill:#33c0c9;}.cls-6{fill:#f6f3f7;}.cls-7{fill:#fff;}.cls-8{fill:#516cb3;}.cls-9{fill:#00b0bc;}.cls-10{fill:url(#linear-gradient);}.cls-11{fill:url(#linear-gradient-2);}.cls-12{fill:url(#linear-gradient-3);}.cls-13{fill:url(#linear-gradient-4);}.cls-14{fill:url(#linear-gradient-5);}.cls-15{fill:url(#linear-gradient-6);}.cls-16{fill:url(#linear-gradient-7);}.cls-17{fill:url(#linear-gradient-8);}</style><linearGradient id="linear-gradient" x1="99.11" y1="46.21" x2="134.88" y2="77.83" gradientUnits="userSpaceOnUse"><stop offset="0" stop-color="#d1c2d8"/><stop offset="1" stop-color="#77488a"/></linearGradient><linearGradient id="linear-gradient-2" x1="135.15" y1="91.13" x2="161.09" y2="114.05" xlink:href="#linear-gradient"/><linearGradient id="linear-gradient-3" x1="119.48" y1="129.07" x2="148.53" y2="154.75" xlink:href="#linear-gradient"/><linearGradient id="linear-gradient-4" x1="130.24" y1="154.16" x2="157.15" y2="177.94" xlink:href="#linear-gradient"/><linearGradient id="linear-gradient-5" x1="151.46" y1="220.08" x2="421.19" y2="458.53" xlink:href="#linear-gradient"/><linearGradient id="linear-gradient-6" x1="202.79" y1="319.6" x2="254.53" y2="365.34" xlink:href="#linear-gradient"/><linearGradient id="linear-gradient-7" x1="202.24" y1="362.65" x2="218.5" y2="377.03" xlink:href="#linear-gradient"/><linearGradient id="linear-gradient-8" x1="56.02" y1="129.51" x2="68.96" y2="142.54" xlink:href="#linear-gradient"/></defs><title>brexit</title><g id="Layer_2" data-name="Layer 2"><g id="NatWest-longform_3-digitisation-desktop"><g class="cls-1"><polygon class="cls-2" points="53.23 132.13 67.29 168.94 67.26 179.57 53.47 187.42 36.54 154.12 32.1 156.65 35.04 161.75 28.05 165.74 26.58 132.55 40.37 124.7 53.23 132.13"/><polygon class="cls-3" points="41.81 26.25 41.74 49.37 27.95 57.22 19.65 29.27 33.44 21.42 41.81 26.25"/><polygon class="cls-3" points="56.84 31.18 61.55 34.12 61.5 54.23 67.4 57.65 67.39 60.46 53.6 68.31 47.7 62.08 43.05 39.03 56.84 31.18"/><polygon class="cls-4" points="47.76 41.97 61.55 34.12 61.5 54.23 47.7 62.08 47.76 41.97"/><polygon class="cls-5" points="60.64 2.03 60.59 19.7 45.43 28.34 40.54 19.87 43.34 7.85 57.13 0 60.64 2.03"/><polygon class="cls-6" points="112.62 26.96 99.78 47.21 99.75 57.92 142.19 82.42 142.16 92.21 126.53 119.32 126.5 131.22 112.71 139.07 105.54 126.8 137.29 145.13 137.26 155.57 111.63 174.59 98.69 167.12 89.97 172.09 75.36 146.77 87.88 139.63 87.9 130.78 82.86 122.04 71.58 115.53 71.53 136.15 57.73 144 57.79 123.38 57.08 89.56 57.14 70.72 69.2 63.85 69.22 55.25 64.62 52.6 67.77 16.88 81.57 9.03 112.62 26.96"/><polygon class="cls-7" points="137.26 155.57 182.13 279.11 175.96 282.63 209.98 302.27 209.9 329.53 185.46 343.46 209.22 357.17 209.21 360.41 188.61 372.15 108.09 325.66 108.06 334.91 87.59 323.09 79.16 328.82 80.89 307.5 94.68 299.65 115.97 311.94 124.29 299.54 106.14 303.28 91.06 277.17 60.83 270.77 74.63 262.92 98.03 255.25 73.49 226.04 87.28 218.19 117.79 235.81 111.54 205.06 123.47 163.42 137.26 155.57"/></g><polygon class="cls-4" points="67.4 57.65 53.61 65.49 53.6 68.31 67.39 60.46 67.4 57.65"/><polygon class="cls-4" points="27.95 57.22 28.02 34.1 41.81 26.25 41.74 49.37 27.95 57.22"/><g class="cls-1"><polygon class="cls-2" points="21.25 169.6 25.71 167.1 22.75 161.97 18.31 164.5 21.25 169.6"/><polygon class="cls-8" points="39.44 139.98 53.5 176.79 53.47 187.42 41.41 194.29 22.75 161.97 18.31 164.5 21.25 169.6 14.26 173.59 0 148.9 26.58 132.55 39.44 139.98"/><polygon class="cls-9" points="28.02 34.1 27.95 57.22 24.72 55.36 19.65 29.27 28.02 34.1"/><polygon class="cls-9" points="43.05 39.03 47.76 41.97 47.7 62.08 53.61 65.49 53.6 68.31 48.12 71.44 32.78 44.87 43.05 39.03"/><polygon class="cls-9" points="46.84 9.88 46.8 27.55 31.64 36.19 26.75 27.72 26.78 17.67 43.34 7.85 46.84 9.88"/><polygon class="cls-7" points="98.83 34.81 85.99 55.06 85.96 65.77 128.4 90.27 128.37 100.06 112.74 127.17 112.71 139.07 91.75 134.65 123.5 152.98 123.47 163.42 97.84 182.44 84.9 174.97 76.18 179.94 61.57 154.62 74.08 147.48 74.11 138.63 69.07 129.89 57.79 123.38 57.73 144 54.51 142.14 54.62 103.95 43.29 97.41 43.34 78.57 55.41 71.7 55.43 63.1 50.83 60.45 50.86 50.14 67.77 16.88 98.83 34.81"/><polygon class="cls-6" points="123.47 163.42 168.34 286.96 162.17 290.48 196.19 310.12 196.11 337.38 171.67 351.31 195.43 365.02 195.42 368.26 174.82 380 94.3 333.51 94.27 342.76 73.79 330.94 65.37 336.67 51.91 328.9 80.89 307.5 102.17 319.79 110.5 307.38 92.34 311.13 77.27 285.02 69.31 287.05 60.83 270.77 84.24 263.1 73.49 226.04 104 243.66 97.75 212.91 97.84 182.44 123.47 163.42"/></g><polygon class="cls-10" points="98.83 34.81 112.62 26.96 99.78 47.21 99.75 57.92 85.96 65.77 85.99 55.06 98.83 34.81"/><polygon class="cls-11" points="142.19 82.42 128.4 90.27 128.37 100.06 142.16 92.21 142.19 82.42"/><polygon class="cls-12" points="126.53 119.32 112.74 127.17 112.71 139.07 126.5 131.22 126.53 119.32"/><polygon class="cls-13" points="123.5 152.98 137.29 145.13 137.26 155.57 123.47 163.42 123.5 152.98"/><polygon class="cls-14" points="182.13 279.11 168.34 286.96 123.47 163.42 137.26 155.57 182.13 279.11"/><polygon class="cls-15" points="196.19 310.12 209.98 302.27 209.9 329.53 196.11 337.38 196.19 310.12"/><polygon class="cls-16" points="209.22 357.17 209.21 360.41 195.42 368.26 195.43 365.02 209.22 357.17"/><polygon class="cls-17" points="57.73 144 71.53 136.15 71.53 134.15 69.07 129.89 57.79 123.38 57.73 144"/><polygon class="cls-4" points="60.64 2.03 46.84 9.88 46.8 27.55 60.59 19.7 60.64 2.03"/></g></g></svg>