<?xml version="1.0" encoding="utf-8"?>
<!-- Generator: Adobe Illustrator 23.0.4, SVG Export Plug-In . SVG Version: 6.00 Build 0)  -->
<svg version="1.1" id="Layer_1" xmlns="http://www.w3.org/2000/svg" xmlns:xlink="http://www.w3.org/1999/xlink" x="0px" y="0px"
	 viewBox="0 0 270 274.6" style="enable-background:new 0 0 270 274.6;" xml:space="preserve">
<style type="text/css">
	.st0{fill:#4A6CB8;}
	.st1{fill:#33C0C9;}
	.st2{fill:#00B0BC;}
	.st3{fill:#FFFFFF;}
	.st4{fill:#26BCC6;}
	.st5{fill:#42145F;}
	.st6{fill:#490B63;}
</style>
<title>devices</title>
<g>
	<g id="NatWest-longform_3-digitisation-desktop">
		<polygon class="st0" points="175.8,192.4 181.7,169.4 203.1,182.8 206,210.7 182.1,224.4 182.1,221.4 182.1,222.5 		"/>
		<polygon class="st1" points="201.2,181.9 204.1,209.7 182.1,222.5 152.1,204.4 173.7,191.7 179.5,168.6 		"/>
		<polygon class="st2" points="179.5,168.6 201.2,181.9 204.1,209.7 173.7,191.7 		"/>
		<polygon class="st2" points="182.1,222.5 182.1,224.4 152.1,206.3 152.1,204.4 		"/>
		<polygon class="st1" points="105.2,2.8 265.1,95.1 270,92.3 110.2,0 		"/>
		<polygon class="st2" points="105.2,135.5 265.1,227.8 265.1,95.1 105.2,2.8 		"/>
		<polygon class="st0" points="270,92.3 265.1,95.1 265.1,227.8 270,225 		"/>
		<polygon class="st3" points="110.3,118.2 260,204.7 260,99.8 110.3,13.4 		"/>
		<path class="st0" d="M154.7,261L154.7,261v-3.1l6.3-1.2l43-24.9c1.3-0.6,2.8-0.6,4.1,0l18.1,10.5l3.2-0.6v3.2l0,0
			c-0.1,0.5-0.4,1-0.8,1.2l-48.6,28c-1.3,0.6-2.8,0.6-4.1,0l-20.5-11.9C155,262,154.7,261.5,154.7,261z"/>
		<path class="st2" d="M178,246.9v27.7c-0.7,0-1.4-0.2-2-0.5l-20.5-11.9c-0.5-0.2-0.8-0.7-0.8-1.2l0,0v-3.1l6.3-1.2L178,246.9z"/>
		<path class="st4" d="M155.5,256.7c-0.6,0.2-1,0.9-0.8,1.5c0.1,0.4,0.4,0.7,0.8,0.8l20.5,11.9c1.3,0.7,2.8,0.7,4.1,0l48.5-28
			c0.6-0.2,1-1,0.7-1.6c-0.1-0.3-0.4-0.6-0.7-0.7l-20.5-11.9c-1.3-0.7-2.8-0.7-4.1,0L155.5,256.7z"/>
		<polygon class="st3" points="162,254.8 183.3,267.2 223.8,243.8 202.5,231.4 		"/>
		<path class="st3" d="M169.8,264.9c-0.8,0-1.5-0.2-2.1-0.5c-0.6-0.4-1-0.8-1-1.4c0-0.4,0.2-0.7,0.5-1c0.6-0.6,1.5-0.9,2.6-0.9
			c0,0,0,0,0,0c0.8,0,1.5,0.2,2.1,0.5c0.6,0.4,1,0.8,1,1.4c0,0.4-0.2,0.7-0.5,1C171.9,264.5,170.9,264.9,169.8,264.9
			C169.8,264.9,169.8,264.9,169.8,264.9z M169.8,261.4v0.3c-0.9,0-1.8,0.3-2.2,0.7c-0.2,0.2-0.3,0.4-0.3,0.6c0,0.3,0.2,0.7,0.7,0.9
			c0.5,0.3,1.1,0.4,1.8,0.4c0,0,0,0,0,0c0.9,0,1.8-0.3,2.2-0.7c0.2-0.2,0.3-0.4,0.3-0.6c0-0.3-0.2-0.7-0.7-0.9
			c-0.5-0.3-1.1-0.4-1.8-0.4c0,0,0,0,0,0V261.4z"/>
		<path class="st5" d="M215.7,235.1c-0.3,0.2-0.3,0.4,0,0.6c0.3,0.2,0.7,0.2,1.1,0c0.3-0.2,0.3-0.4,0-0.6
			C216.5,234.9,216.1,234.9,215.7,235.1z"/>
		<path class="st6" d="M163.4,265v0.5c0,0,0,0.1,0,0.2l4.5,2.6 M168.1,268.3v-0.5l0,0l-4.6-2.8L168.1,268.3z"/>
		<path class="st2" d="M160.2,236.5L160.2,236.5v-1.8l-7.6-1.5l-92.7-53.4c-1.5-0.8-3.3-0.8-4.9,0L3.9,209.5L0,208.8v1.9l0,0
			c0.1,0.6,0.5,1.2,1,1.4l99.2,57.2c1.5,0.8,3.3,0.8,4.9,0l54.1-31.4C159.8,237.7,160.2,237.1,160.2,236.5z"/>
		<path class="st0" d="M105.1,269.3l54.1-31.4c0.6-0.3,1-0.8,1-1.4l0,0v-1.8l-7.6-1.5l-11.8-6.8l-38.1,21.3v22.2
			C103.6,269.9,104.4,269.7,105.1,269.3z"/>
		<path class="st4" d="M159.2,233.2c1.3,0.8,1.4,2,0,2.8l-54.1,31.5c-1.5,0.8-3.3,0.8-4.9,0L1,210.2c-0.8-0.3-1.2-1.1-0.9-1.9
			c0.1-0.4,0.5-0.8,0.9-0.9L55.1,176c1.5-0.8,3.3-0.8,4.9,0L159.2,233.2z"/>
		<polygon class="st3" points="151.5,231 96.4,263 6.6,211.3 61.8,179.3 		"/>
		<path class="st3" d="M129.2,250.9C129.2,250.9,129.2,250.9,129.2,250.9c-1,0-1.8-0.2-2.5-0.6c-0.7-0.4-1.1-1-1.1-1.5
			c0-1.2,1.6-2.1,3.5-2.1c0,0,0,0,0,0c0.9,0,1.8,0.2,2.5,0.6c0.7,0.4,1.1,1,1.1,1.5c0,0.6-0.4,1.1-1.1,1.5
			C131,250.7,130.1,250.9,129.2,250.9z M129.2,247c-1.8,0-3.2,0.8-3.2,1.8c0,0.5,0.3,0.9,0.9,1.2c0.6,0.4,1.4,0.6,2.3,0.6
			c0,0,0,0,0,0c0.9,0,1.7-0.2,2.3-0.5c0.6-0.3,0.9-0.8,0.9-1.2s-0.3-0.9-0.9-1.2C130.9,247.2,130,247,129.2,247
			C129.2,247,129.2,247,129.2,247z"/>
		<path d="M30.7,193.9c0.5,0.3,0.5,0.7,0,1c-0.5,0.3-1.2,0.3-1.7,0c-0.3-0.1-0.4-0.4-0.3-0.7c0.1-0.1,0.2-0.2,0.3-0.3
			C29.6,193.7,30.2,193.7,30.7,193.9z"/>
	</g>
</g>
</svg>
