<svg xmlns="http://www.w3.org/2000/svg" xmlns:xlink="http://www.w3.org/1999/xlink" viewBox="0 0 270 349.86"><defs><style>.cls-1{fill:#f6f3f7;}.cls-2{fill:url(#linear-gradient);}.cls-3{fill:#fff;}.cls-4{fill:#00b0bc;}</style><linearGradient id="linear-gradient" x1="174.68" y1="324.48" x2="222.29" y2="356.25" gradientUnits="userSpaceOnUse"><stop offset="0" stop-color="#d1c2d8"/><stop offset="0.94" stop-color="#77488a"/></linearGradient></defs><title>globalisation</title><g id="Layer_2" data-name="Layer 2"><g id="NatWest-longform_3-digitisation-desktop"><path class="cls-1" d="M64.41,309c.06,10.46,7,20.92,20.84,28.91,27.66,16,72.35,16,99.83,0,13.74-8,20.57-18.45,20.51-28.91v-6.12H64.41Z"/><path class="cls-2" d="M148.36,349.15c13.46-1.47,26.32-5.22,36.72-11.26,13.74-8,20.57-18.45,20.51-28.91v-6.12H148.36Z"/><path class="cls-3" d="M184.75,274c27.66,16,27.81,41.85.33,57.82s-72.17,16-99.83,0S57.44,289.91,84.92,274,157.1,258,184.75,274Z"/><circle class="cls-3" cx="135" cy="135" r="135"/><path class="cls-4" d="M250.81,205l-11.33-11.33-37.13,33.24,15.19,15.19A135.59,135.59,0,0,0,250.81,205Z"/><path class="cls-4" d="M103.26,247.42l-9.71,9.72H77.79a135.57,135.57,0,0,0,91.31,8.61v-5.16H116.43Z"/><path class="cls-4" d="M37.25,228.11l-7.16-32.63,6.11-24.7V137.54L3.41,104.75A135.19,135.19,0,0,0,37.25,228.11Z"/><path class="cls-4" d="M10.26,83.19,65.94,41.26V25.71H82.35v8.21l39.29-20.3-18.3-9.89A135.27,135.27,0,0,0,10.26,83.19Z"/><path class="cls-4" d="M258,80.11,241.67,67V63l7.51-.07a134.73,134.73,0,0,0-41.55-42H148L120.31,38.23V46h-21L87.5,66.73h42.31l15.55,24.61h-24.8L110.9,76.23H83.18l-25.9,40.12v12.3H95v84h7.94l48.48-74V123l-6-15.21H154l15.55,36.7L192.42,122l8.2,6.65-8.49,9.86,18,18.46V141l7.18-9.93h5.77v10.36l16,12.53V132.36h15.87v-14.7l-10.49-25H258Z"/></g></g></svg>