<?xml version="1.0" encoding="utf-8"?>
<!-- Generator: Adobe Illustrator 23.0.4, SVG Export Plug-In . SVG Version: 6.00 Build 0)  -->
<svg version="1.1" id="Layer_1" xmlns="http://www.w3.org/2000/svg" xmlns:xlink="http://www.w3.org/1999/xlink" x="0px" y="0px"
	 viewBox="0 0 270 159.3" style="enable-background:new 0 0 270 159.3;" xml:space="preserve">
<style type="text/css">
	.st0{fill:#00B0BC;}
	.st1{fill:#4A6CB8;}
	.st2{fill:#26BCC6;}
	.st3{fill:#FFFFFF;}
	.st4{fill:#33C0C9;}
</style>
<title>main</title>
<g id="NatWest-longform_3-digitisation-desktop">
	<g>
		<path class="st0" d="M270,102.8L270,102.8v-3l-12.8-2.5L101,7.3c-2.6-1.3-5.6-1.3-8.2,0L6.5,57.5L0,56.2v3.2l0,0
			c0.1,1,0.8,1.9,1.7,2.4L169,158.2c2.6,1.3,5.6,1.3,8.2,0l91.1-52.9C269.3,104.9,269.9,103.9,270,102.8z"/>
		<path class="st1" d="M177.2,158.2l91.1-52.9c1-0.4,1.6-1.4,1.7-2.4l0,0v-3l-12.8-2.5l-19.9-11.5l-64.1,35.9v37.4
			C174.6,159.3,176,158.9,177.2,158.2z"/>
		<path class="st2" d="M268.3,97.5c2.3,1.3,2.3,3.4,0,4.7l-91.1,52.9c-2.6,1.3-5.6,1.3-8.2,0L1.7,58.7c-2.3-1.3-2.3-3.4,0-4.7
			L92.9,1c2.6-1.3,5.6-1.3,8.2,0L268.3,97.5z"/>
		<polygon class="st3" points="255.3,93.7 162.4,147.6 11.2,60.4 104.1,6.5 		"/>
		<path class="st3" d="M217.7,127.1c-1.5,0-2.9-0.3-4.2-1c-1.4-0.5-2.2-2.1-1.7-3.5c0.3-0.8,0.9-1.4,1.7-1.7c2.6-1.3,5.7-1.3,8.3,0
			l0,0c1.4,0.5,2.2,2.1,1.7,3.5c-0.3,0.8-0.9,1.4-1.7,1.7C220.6,126.8,219.1,127.1,217.7,127.1z M217.7,120.5
			c-1.3,0-2.7,0.3-3.9,0.9c-0.9,0.4-1.4,1.2-1.5,2.1c0.1,0.9,0.7,1.7,1.5,2.1c2.4,1.2,5.3,1.2,7.8,0c0.8-0.4,1.4-1.2,1.5-2.1
			c-0.1-0.9-0.7-1.7-1.5-2.1l0,0C220.4,120.8,219,120.5,217.7,120.5L217.7,120.5z"/>
		<path d="M51.8,31.1c0.8,0.5,0.8,1.2,0,1.7c-0.9,0.5-2,0.5-2.9,0c-0.5-0.1-0.7-0.6-0.6-1.1c0.1-0.3,0.3-0.5,0.6-0.6
			C49.8,30.7,50.9,30.7,51.8,31.1z"/>
		<polygon class="st1" points="207.8,98.4 219,92.1 112.1,28.5 100.9,34.8 		"/>
		<polygon class="st1" points="190.4,108.2 201.7,101.9 184.7,91.8 173.4,98.1 		"/>
		<polygon class="st1" points="173.1,117.9 184.4,111.6 122.5,74.8 111.3,81.1 		"/>
		<polygon class="st1" points="155.8,127.7 167,121.4 126.5,97.2 115.3,103.5 		"/>
		<polygon class="st4" points="149.2,131.7 36.9,64.8 37.2,64.3 149.2,131 228.5,86.6 228.8,87.2 		"/>
	</g>
</g>
</svg>
