<svg xmlns="http://www.w3.org/2000/svg" xmlns:xlink="http://www.w3.org/1999/xlink" viewBox="0 0 270.46 380"><defs><style>.cls-1{fill:#f6f3f7;}.cls-2{fill:url(#linear-gradient);}.cls-3{fill:#fff;}.cls-4{fill:#4a6cb8;}.cls-5{fill:url(#linear-gradient-2);}.cls-6{fill:#26bcc6;}.cls-7{fill:#00b0bc;}.cls-8{fill:url(#linear-gradient-3);}</style><linearGradient id="linear-gradient" x1="120.27" y1="319.67" x2="171.09" y2="373.8" gradientUnits="userSpaceOnUse"><stop offset="0" stop-color="#d1c2d8"/><stop offset="0.94" stop-color="#77488a"/></linearGradient><linearGradient id="linear-gradient-2" x1="40.12" y1="186.83" x2="89.96" y2="224.64" gradientUnits="userSpaceOnUse"><stop offset="0" stop-color="#d1c2d8"/><stop offset="1" stop-color="#77488a"/></linearGradient><linearGradient id="linear-gradient-3" x1="223.46" y1="131.15" x2="283.85" y2="176.96" xlink:href="#linear-gradient-2"/></defs><title>sustainability</title><g id="Layer_2" data-name="Layer 2"><g id="NatWest-longform_3-digitisation-desktop"><path class="cls-1" d="M100.57,283.22,49,280.74s13.14,62.37,17.51,83.61c.77,3.75,4.48,6.95,9.26,9.73,6.82,4,15.79,5.94,24.76,5.92s17.93-2,24.76-5.92c4.78-2.78,8.49-6,9.26-9.73C139,343.11,152,281.43,152,281.43Z"/><path class="cls-2" d="M129.43,282.22,114,294.14l-5.23,85.31a45.71,45.71,0,0,0,16.53-5.37c4.78-2.78,8.49-6,9.26-9.73C139,343.11,152,281.43,152,281.43Z"/><path class="cls-3" d="M137.24,255.31c20.39,11.77,20.5,30.86.25,42.63s-53.21,11.77-73.6,0-20.5-30.86-.24-42.63S116.85,243.54,137.24,255.31Z"/><path class="cls-4" d="M100.74,304c-13.42,0-26-3-35.44-8.45-9-5.19-13.95-11.92-14-19s4.86-13.65,13.72-18.8c9.38-5.45,21.92-8.45,35.34-8.45s26,3,35.44,8.45c9,5.2,13.94,11.93,13.95,19s-4.86,13.66-13.72,18.8C126.7,301,114.15,304,100.74,304Z"/><path class="cls-4" d="M85.65,247.14l-20.59,10.6,35.51,21.89,35.5-21.89-20.59-10.6A32.58,32.58,0,0,0,85.65,247.14Z"/><polygon class="cls-1" points="39.45 189.99 39.45 235.18 0 212.48 0.13 167.29 39.45 189.99"/><polygon class="cls-3" points="0.13 167.29 39.45 189.99 78.9 167.29 39.45 144.59 0.13 167.29"/><polygon class="cls-5" points="39.45 189.99 39.45 235.18 78.9 212.48 78.77 167.29 39.45 189.99"/><path class="cls-4" d="M163.32,16.14A31.88,31.88,0,0,0,150.35,2,22.5,22.5,0,0,0,146.19,0l-9.82,5.71L153.5,42.55l9.82-5.71C163.62,36.43,169.16,28.69,163.32,16.14Z"/><path class="cls-6" d="M163.32,16.14A31.88,31.88,0,0,0,150.35,2,22.5,22.5,0,0,0,146.19,0l-9.82,5.71,4.89,10.5,9.26,14.07,14.86-8.21A30.27,30.27,0,0,0,163.32,16.14Z"/><path class="cls-7" d="M140.53,7.66a31.88,31.88,0,0,1,13,14.19c5.84,12.55.3,20.29,0,20.7a23.78,23.78,0,0,1-4.16-2,31.84,31.84,0,0,1-13-14.18c-5.84-12.56-.3-20.29,0-20.7A22.5,22.5,0,0,1,140.53,7.66Z"/><path class="cls-4" d="M95.6,43.31a32,32,0,0,0-8.37-7.22c-5.84-3.38-9.88-2.65-10.1-2.62l-9.65,5.66L95.86,72.59l9.65-5.65C105.49,66.33,105.27,54.72,95.6,43.31Z"/><path class="cls-6" d="M94.06,41.6a30.28,30.28,0,0,0-6.83-5.51c-5.84-3.38-9.88-2.65-10.1-2.62l-9.65,5.66,5.87,6.92,8.58,2.44Z"/><path class="cls-7" d="M77.58,41.74A32.39,32.39,0,0,1,86,49c9.67,11.41,9.9,23,9.91,23.63-.22,0-4.26.77-10.1-2.61a32.39,32.39,0,0,1-8.37-7.22c-9.67-11.41-9.89-23-9.91-23.63C67.7,39.09,71.74,38.37,77.58,41.74Z"/><path class="cls-3" d="M100.92,249.29h-.71V40.14A37.27,37.27,0,0,1,155.93,7.76a95.66,95.66,0,0,1,48.24,83v20.1h-.71V90.73A95,95,0,0,0,155.59,8.37a36.57,36.57,0,0,0-54.67,31.77Z"/><path class="cls-4" d="M95.6,154.63a32.39,32.39,0,0,0-8.37-7.22c-5.84-3.37-9.88-2.65-10.1-2.61l-9.65,5.65,28.38,33.47,9.65-5.66C105.49,177.65,105.27,166,95.6,154.63Z"/><path class="cls-6" d="M94.06,152.92a30.85,30.85,0,0,0-6.83-5.51c-5.84-3.37-9.88-2.65-10.1-2.61l-9.65,5.65,5.87,6.92,8.58,2.44Z"/><path class="cls-7" d="M77.58,153.06A32.39,32.39,0,0,1,86,160.28c9.67,11.41,9.9,23,9.91,23.64-.22,0-4.26.76-10.1-2.62a32,32,0,0,1-8.37-7.22c-9.67-11.41-9.89-23-9.91-23.63C67.7,150.41,71.74,149.69,77.58,153.06Z"/><path class="cls-4" d="M229.79,36.44a37.51,37.51,0,0,0-9.92-8.1,34,34,0,0,0-10-3.89c-5.37-1.13-9.08-.48-11.56.63h0c-.56.25-9.44,5.13-9.44,5.13l8.94,2.56a40.78,40.78,0,0,0,6,4.21,34.08,34.08,0,0,0,10,3.89,27.07,27.07,0,0,0,4,.55L217,44.85s7.13-3.86,9.48-5.19A8.39,8.39,0,0,0,229.79,36.44Z"/><path class="cls-6" d="M219.87,28.34a34,34,0,0,0-10-3.89c-5.37-1.13-9.08-.48-11.56.63h0c-.56.25-9.44,5.13-9.44,5.13l8.94,2.56c.84.71,1.8,1.47,2.89,2.24l20.2,6.29,8.9-4.87A37.51,37.51,0,0,0,219.87,28.34Z"/><path class="cls-7" d="M211,33.21a37.92,37.92,0,0,1,9.92,8.1c-.19.35-3.77,7-16,4.44a34.15,34.15,0,0,1-10-3.89,37.71,37.71,0,0,1-9.92-8.1c.19-.35,3.77-7,16-4.44A34.15,34.15,0,0,1,211,33.21Z"/><path class="cls-4" d="M143.23,198.16c-1-.55-10.38-5.71-20.78-1.28h0a24.86,24.86,0,0,0-2.37,1.18c-.48.27-.92.55-1.36.84l-6.56,3.55,1,1.72a24,24,0,0,0-4.63,14,25.41,25.41,0,0,0,14.39,2.94l.88,1.54,7.92-4.39C143.58,211.46,143.32,198.21,143.23,198.16Z"/><path class="cls-6" d="M135.32,202.55l7.91-4.39c-1-.55-10.38-5.71-20.78-1.28h0c-.78.34-10.29,5.57-10.29,5.57l1,1.72a3.46,3.46,0,0,0-.22.31Z"/><path class="cls-7" d="M135.32,202.55c.08,0,.35,13.3-11.55,20.08-11.31,6.44-22.15.5-23.19-.09-.08,0-.35-13.3,11.55-20.08C123.44,196,134.29,202,135.32,202.55Z"/><path class="cls-4" d="M143.23,80.18c-1-.55-10.38-5.71-20.78-1.28h0l0,0a22.58,22.58,0,0,0-2.37,1.17c-.48.27-.92.56-1.36.84l-6.56,3.55,1,1.72a24.05,24.05,0,0,0-4.63,14,25.32,25.32,0,0,0,14.39,2.94l.88,1.54,7.92-4.39C143.58,93.48,143.32,80.23,143.23,80.18Z"/><path class="cls-6" d="M135.32,84.57l7.91-4.39c-1-.55-10.38-5.71-20.78-1.28h0l0,0c-.78.33-10.29,5.56-10.29,5.56l1,1.72c-.08.1-.15.21-.22.31Z"/><path class="cls-7" d="M135.32,84.57c.08.05.35,13.3-11.55,20.08-11.31,6.45-22.15.51-23.19-.09-.08,0-.35-13.3,11.55-20.08C123.44,78,134.29,84,135.32,84.57Z"/><path class="cls-3" d="M100.92,189.89h-.71V145.78a52.47,52.47,0,0,0-26-45.23A22.89,22.89,0,0,0,39.8,120.34v42h-.7v-42a23.6,23.6,0,0,1,35.44-20.4,53.21,53.21,0,0,1,26.38,45.84Z"/><polygon class="cls-1" points="222.65 134.98 222.65 189.74 174.84 162.23 175 107.47 222.65 134.98"/><polygon class="cls-8" points="222.65 134.98 222.65 189.74 270.46 162.23 270.3 107.47 222.65 134.98"/><polygon class="cls-3" points="175 107.47 222.65 134.98 270.46 107.47 222.65 79.96 175 107.47"/></g></g></svg>