<svg xmlns="http://www.w3.org/2000/svg" xmlns:xlink="http://www.w3.org/1999/xlink" viewBox="0 0 232.72 380"><defs><style>.cls-1{fill:#fff;}.cls-2{fill:#06b3bb;}.cls-3{fill:#26bcc6;}.cls-4{fill:#00b0bc;}.cls-5{fill:#4a6cb8;}.cls-6{fill:#f6f3f7;}.cls-7{fill:url(#linear-gradient);}.cls-8{fill:url(#linear-gradient-2);}</style><linearGradient id="linear-gradient" x1="129.52" y1="234.64" x2="167.81" y2="299.41" gradientUnits="userSpaceOnUse"><stop offset="0" stop-color="#f6f3f7"/><stop offset="1" stop-color="#77488a"/></linearGradient><linearGradient id="linear-gradient-2" x1="149.35" y1="101.65" x2="238.01" y2="251.57" xlink:href="#linear-gradient"/></defs><title>talent</title><g id="Layer_2" data-name="Layer 2"><g id="NatWest-longform_3-digitisation-desktop"><path class="cls-1" d="M182.62,128.11l-2.8-4.45c12-7.56,22.78-23.09,28.74-41.54,6.28-19.43,6.52-39.37.72-56.51L182.34,38.27l-2.24-4.76,32.12-15.09,1,2.65c7.19,18.82,7.31,41.08.34,62.66C207.23,103.32,195.66,119.91,182.62,128.11Z"/><path class="cls-2" d="M179.13,15.11c34.89,20.14,35.07,52.8.4,73s-91,20.15-125.94,0-35.07-52.81-.41-72.95S144.23-5,179.13,15.11Z"/><polygon class="cls-3" points="205.56 238.14 116.65 289.81 27.16 238.14 116.07 186.48 205.56 238.14"/><polygon class="cls-4" points="0 312.64 0 290.47 116.67 357.83 116.67 380 0 312.64"/><polygon class="cls-3" points="0 290.47 116.05 223.03 232.72 290.39 116.67 357.83 0 290.47"/><polygon class="cls-4" points="116.65 289.81 116.65 342.72 27.16 291.05 27.16 238.14 116.65 289.81"/><polygon class="cls-5" points="116.65 289.81 116.65 342.72 206.14 291.05 206.14 238.14 116.65 289.81"/><polygon class="cls-1" points="129.1 294.36 129.1 320.13 193.69 282.85 193.69 257.07 129.1 294.36"/><path class="cls-6" d="M72,239.39c0,6.58,4.4,13.16,13.1,18.18,17.39,10.05,45.5,10,62.78,0,8.64-5,12.94-11.6,12.9-18.18v-14.1H72Z"/><path class="cls-7" d="M110.63,264.87c13.24,1,27.09-1.41,37.22-7.3,8.64-5,12.94-11.6,12.9-18.18v-14.1H110.63Z"/><path class="cls-1" d="M147.65,207.11c17.39,10,17.48,26.32.2,36.37s-45.39,10-62.78,0-17.48-26.33-.2-36.37S130.25,197.07,147.65,207.11Z"/><path class="cls-1" d="M97.82,199.58,83,208.28s6.18,18.38,33.39,18.38V199.58Z"/><path class="cls-1" d="M134.9,199.58l14.85,8.7s-6.18,18.38-33.39,18.38V199.58Z"/><path class="cls-6" d="M134.9,176H97.82v29h0c0,2.75,1.84,5.49,5.47,7.59,7.27,4.19,19,4.19,26.22,0,3.61-2.1,5.4-4.85,5.39-7.59h0Z"/><path class="cls-6" d="M205.42,51.58H27.3c0,104.59,60.25,139.15,89.06,139.15h0C145.16,190.73,205.42,156.17,205.42,51.58Z"/><path class="cls-8" d="M153.69,51.58c31.35,97.81-37.33,139.15-37.33,139.15,28.8,0,89.06-34.56,89.06-139.15Z"/><path class="cls-5" d="M179.13,15.11c34.89,20.14,35.07,52.8.4,73s-91,20.15-125.94,0-35.07-52.81-.41-72.95S144.23-5,179.13,15.11Z"/><polygon class="cls-5" points="116.67 357.83 116.67 380 232.72 312.56 232.72 290.39 116.67 357.83"/><path class="cls-1" d="M59.1,161.66a50.23,50.23,0,0,1-33-12.34C14.11,139,7,123.8,7,108.6v-1.54l29.9-16.62L39.4,95,12.24,110.13a49.46,49.46,0,0,0,17.28,35.2,45.17,45.17,0,0,0,36.76,10.52l.79,5.2A52.56,52.56,0,0,1,59.1,161.66Z"/></g></g></svg>