<svg xmlns="http://www.w3.org/2000/svg" xmlns:xlink="http://www.w3.org/1999/xlink" viewBox="0 0 90.6 81.4"><defs><style>.cls-1{fill:#f6f3f7;}.cls-2{fill:#fff;}.cls-3{fill:#00b0bc;}.cls-4{fill:#4a6cb8;}.cls-5{fill:url(#linear-gradient);}.cls-6{fill:url(#linear-gradient-2);}.cls-7{fill:url(#linear-gradient-3);}.cls-8{fill:#26bcc6;}.cls-9{fill:url(#linear-gradient-4);}</style><linearGradient id="linear-gradient" x1="43.7" y1="56.99" x2="90.44" y2="76.69" gradientUnits="userSpaceOnUse"><stop offset="0" stop-color="#f6f3f7"/><stop offset="1" stop-color="#77488a"/></linearGradient><linearGradient id="linear-gradient-2" x1="43.3" y1="47.07" x2="90.47" y2="65.72" xlink:href="#linear-gradient"/><linearGradient id="linear-gradient-3" x1="40.42" y1="47.2" x2="86.83" y2="47.2" xlink:href="#linear-gradient"/><linearGradient id="linear-gradient-4" x1="49.2" y1="26.83" x2="80.78" y2="46.04" xlink:href="#linear-gradient"/></defs><title>6-future_hold</title><g id="Layer_2" data-name="Layer 2"><g id="NatWest-longform_3-digitisation-desktop"><polygon class="cls-1" points="90.6 51.93 39.87 81.4 1.96 59.51 1.96 58.32 52.68 30.04 90.6 51.93"/><polygon class="cls-2" points="90.6 50.73 39.87 80.21 1.96 58.32 52.68 28.84 90.6 50.73"/><polygon class="cls-3" points="87.84 50.55 39.87 78.58 3.31 57.45 51.27 29.43 87.84 43.2 87.84 50.55"/><polygon class="cls-4" points="87.84 43.2 51.27 29.43 39.87 36.08 39.87 78.58 87.84 50.55 87.84 43.2"/><polygon class="cls-5" points="39.87 80.21 39.87 81.4 90.6 51.93 90.6 50.73 39.87 80.21"/><path class="cls-1" d="M2,49.18l3,1.75-1.5,6.52L2,58.32A5.77,5.77,0,0,1,.38,54,13.39,13.39,0,0,1,2,49.18Z"/><polygon class="cls-1" points="90.6 41.6 39.87 71.07 1.96 49.18 1.96 47.99 52.68 19.71 90.6 41.6"/><polygon class="cls-2" points="90.6 40.4 39.87 69.88 1.96 47.99 52.68 18.51 90.6 40.4"/><polygon class="cls-6" points="39.87 69.88 39.87 71.07 90.6 41.6 90.6 40.4 39.87 69.88"/><path class="cls-1" d="M2,58.32A8.38,8.38,0,0,1,.67,53.59,10.62,10.62,0,0,1,2,49.18V48a10.27,10.27,0,0,0-2,5.76,10.27,10.27,0,0,0,2,5.76Z"/><path class="cls-3" d="M3.35,50a9.36,9.36,0,0,0-.83,3.76,9.54,9.54,0,0,0,.8,3.7l1.12.66,5.31-4.43Z"/><polygon class="cls-2" points="86.83 38.59 40.42 65.57 5.73 45.54 52.14 18.57 86.83 38.59"/><polygon class="cls-1" points="40.42 65.57 5.73 45.54 5.73 46.51 40.42 66.54 86.83 39.57 85.99 39.08 40.42 65.57"/><polygon class="cls-1" points="40.42 54.82 5.73 34.79 5.73 35.77 40.42 55.79 86.83 28.82 85.99 28.34 40.42 54.82"/><polygon class="cls-2" points="86.83 27.86 40.42 54.83 5.73 34.8 52.14 7.83 86.83 27.86"/><polygon class="cls-7" points="86.83 27.86 86.83 39.57 40.42 66.54 40.42 54.83 86.83 27.86"/><polygon class="cls-3" points="7.41 36.74 7.41 45.41 40.42 64.28 40.42 55.79 7.41 36.74"/><polygon class="cls-1" points="40.42 66.54 40.42 54.83 39.56 54.33 39.56 66 40.42 66.54"/><polygon class="cls-3" points="80.79 27.29 41.05 50.51 13.73 34.75 13.73 33.55 53.46 11.53 80.79 27.29"/><polygon class="cls-8" points="80.79 26.09 41.05 49.31 13.73 33.55 53.46 10.33 80.79 26.09"/><polygon class="cls-1" points="78.03 25.91 41.05 47.68 15.08 32.69 52.05 10.91 78.03 18.56 78.03 25.91"/><polygon class="cls-9" points="78.02 18.56 52.05 10.91 41.05 40.18 41.05 47.68 78.02 25.91 78.02 18.56"/><polygon class="cls-4" points="41.05 49.31 41.05 50.51 80.79 27.29 80.79 26.09 41.05 49.31"/><path class="cls-4" d="M13.73,24.42l3,1.74-1.5,6.52-1.5.87a5.77,5.77,0,0,1-1.58-4.32A13.39,13.39,0,0,1,13.73,24.42Z"/><polygon class="cls-3" points="80.79 16.96 41.05 40.18 13.73 24.42 13.73 23.22 53.46 1.2 80.79 16.96"/><polygon class="cls-8" points="80.79 15.76 41.05 38.98 13.73 23.22 53.46 0 80.79 15.76"/><polygon class="cls-4" points="41.05 38.98 41.05 40.18 80.79 16.96 80.79 15.76 41.05 38.98"/><path class="cls-3" d="M13.73,33.55a8.38,8.38,0,0,1-1.29-4.73,10.58,10.58,0,0,1,1.29-4.4v-1.2a10.27,10.27,0,0,0-2,5.76,10.28,10.28,0,0,0,2,5.77Z"/><path class="cls-1" d="M15.12,25.22a8.94,8.94,0,0,0,0,7.46l1.12.66,5.31-4.42Z"/></g></g></svg>