<svg xmlns="http://www.w3.org/2000/svg" xmlns:xlink="http://www.w3.org/1999/xlink" viewBox="0 0 66.43 100.28"><defs><style>.cls-1{fill:#00b0bc;}.cls-2{fill:#33c0c9;}.cls-3{fill:#4a6cb8;}.cls-4{fill:#fff;}.cls-5{fill:url(#linear-gradient);}.cls-6{fill:#06b3bb;}.cls-7{isolation:isolate;}.cls-8{fill:#490b63;}.cls-9{fill:#516cb4;}</style><linearGradient id="linear-gradient" x1="12.24" y1="57.94" x2="219.26" y2="102.33" gradientTransform="translate(73.12 -0.55) rotate(59.84)" gradientUnits="userSpaceOnUse"><stop offset="0" stop-color="#fff" stop-opacity="0.25"/><stop offset="1" stop-color="#42145f" stop-opacity="0.75"/></linearGradient></defs><title>3-mid_sized_businesses</title><g id="Layer_2" data-name="Layer 2"><g id="NatWest-longform_3-digitisation-desktop"><path class="cls-1" d="M58.79,29.36l-9.34-5.65h0a16.55,16.55,0,0,0-8.17-2,26.83,26.83,0,0,0-13.33,4C20.41,30.05,13.37,37.46,8.11,46.56S0,65.44,0,74.1C0,83,3.21,89.81,8.57,93.24l8.31,5L39,61.82,30.85,91.71C38.38,87.36,45.42,80,50.68,70.85S58.82,52,58.79,43.31a29,29,0,0,0-1.92-10.79Z"/><path class="cls-2" d="M49.45,23.71h0a16.55,16.55,0,0,0-8.17-2,26.83,26.83,0,0,0-13.33,4,52.7,52.7,0,0,0-15.3,14l7.67,4.51L57,33c-.05-.15-.1-.3-.16-.45l1.92-3.16Z"/><path class="cls-3" d="M25.17,100.28c-10.61,0-17.49-8.49-17.53-21.63,0-8.66,2.86-18.44,8.12-27.54S28.05,34.6,35.58,30.25a26.86,26.86,0,0,1,13.33-4c10.61,0,17.49,8.49,17.52,21.63,0,8.66-2.85,18.44-8.11,27.54S46,91.91,38.5,96.26A27,27,0,0,1,25.17,100.28Z"/><ellipse class="cls-4" cx="37.04" cy="63.25" rx="37.57" ry="21.76" transform="translate(-36.26 63.5) rotate(-59.84)"/><ellipse class="cls-5" cx="37.04" cy="63.25" rx="37.57" ry="21.76" transform="translate(-36.26 63.5) rotate(-59.84)"/><path class="cls-1" d="M53.21,29.6c5.79,2.28,9.48,8.55,9.51,17.92,0,16.92-11.85,37.52-26.57,46C30,97.07,24.4,98,19.89,96.57c4.66,1.84,10.67,1.1,17.24-2.69,14.72-8.5,26.61-29.1,26.56-46C63.66,38,59.56,31.54,53.21,29.6Z"/><polygon class="cls-6" points="37.46 86.22 37.48 91 36.76 91.41 36.75 86.63 37.46 86.22"/><g class="cls-7"><polygon class="cls-6" points="47.49 77.11 49.58 80.06 48.96 80.83 46.87 77.88 47.49 77.11"/><polygon class="cls-6" points="48.82 32 49.45 32.05 47.38 37.39 46.75 37.34 48.82 32"/><polygon class="cls-6" points="37.32 35.09 37.33 39.88 36.62 40.29 36.6 35.51 37.32 35.09"/><polygon class="cls-6" points="61.37 48.79 61.37 49.62 57.2 52.02 57.2 51.2 61.37 48.79"/><polygon class="cls-6" points="26.7 89.11 27.33 89.17 25.26 94.51 24.63 94.46 26.7 89.11"/><polygon class="cls-6" points="19.43 84.67 19.79 85.17 16.19 89.65 15.83 89.14 19.43 84.67"/><polygon class="cls-6" points="16.88 74.48 16.88 75.31 12.71 77.71 12.71 76.89 16.88 74.48"/><polygon class="cls-6" points="16.11 60.98 19.72 61.29 19.37 62.21 15.75 61.9 16.11 60.98"/><polygon class="cls-6" points="25.12 45.68 27.21 48.62 26.59 49.39 24.5 46.45 25.12 45.68"/></g><polygon class="cls-6" points="57.89 36.86 58.25 37.37 54.65 41.84 54.29 41.33 57.89 36.86"/><polygon class="cls-6" points="54.71 64.29 58.33 64.61 57.97 65.53 54.36 65.22 54.71 64.29"/><rect class="cls-8" x="42.26" y="60.31" width="0.55" height="13.46" transform="matrix(0.56, -0.83, 0.83, 0.56, -36.82, 64.51)"/><path class="cls-1" d="M35.2,64.6a1,1,0,0,1-.42-.93,3.15,3.15,0,0,1,1.43-2.49,1,1,0,0,1,1-.11l.81.42L36.1,65.05Z"/><rect class="cls-8" x="36.73" y="43.4" width="0.55" height="17.78"/><ellipse class="cls-3" cx="37.04" cy="63.25" rx="2.03" ry="1.18" transform="translate(-36.26 63.5) rotate(-59.84)"/><path class="cls-8" d="M35.8,24.72l-.28-.48c5.41-3.12,9.79-10.71,9.77-16.92h.55C45.86,13.71,41.35,21.51,35.8,24.72Z"/><path class="cls-9" d="M39.58,25.51a2.14,2.14,0,0,1-1.26,1.79,6.86,6.86,0,0,1-6.18,0,2.18,2.18,0,0,1-1.29-1.79V21.16h8.73Z"/><path class="cls-1" d="M35.63,21.16H30.85v4.35a2.18,2.18,0,0,0,1.29,1.79,6.57,6.57,0,0,0,3.49.73Z"/><path class="cls-2" d="M38.3,19.37C40,20.36,40,22,38.32,23a6.86,6.86,0,0,1-6.18,0c-1.71-1-1.72-2.59,0-3.58A6.8,6.8,0,0,1,38.3,19.37Z"/><path class="cls-9" d="M38.46,20.48a1.62,1.62,0,0,1-.94,1.33,5.08,5.08,0,0,1-4.59,0A1.63,1.63,0,0,1,32,20.48V17.26h6.48Z"/><path class="cls-1" d="M35.52,17.26H32v3.22a1.63,1.63,0,0,0,.95,1.33,4.82,4.82,0,0,0,2.59.54Z"/><path class="cls-2" d="M37.5,15.93c1.27.73,1.28,1.92,0,2.65a5,5,0,0,1-4.59,0c-1.27-.73-1.27-1.92,0-2.65A5.06,5.06,0,0,1,37.5,15.93Z"/><circle class="cls-1" cx="35.22" cy="13.65" r="4.11"/><path class="cls-8" d="M31.19,26.12A5.22,5.22,0,0,1,27.87,25c-1.57-1.24-2.44-3.44-2.45-6.21,0-6.38,4.48-14.19,10-17.4C38.21-.19,40.81-.43,42.79.7s3,3.48,3.05,6.62h-.55c0-2.93-1-5.12-2.78-6.14s-4.2-.79-6.78.7C30.33,5,26,12.59,26,18.8c0,2.6.8,4.65,2.24,5.78a5.18,5.18,0,0,0,4.58.79l.12.53A7,7,0,0,1,31.19,26.12Z"/></g></g></svg>