<svg xmlns="http://www.w3.org/2000/svg" xmlns:xlink="http://www.w3.org/1999/xlink" viewBox="0 0 90 115.02"><defs><style>.cls-1{fill:none;}.cls-2{fill:#6e89c7;}.cls-3{fill:#4a6cb8;}.cls-4{fill:#33c0c9;}.cls-5{fill:#4dc8d0;}.cls-6{fill:#00b0bc;}.cls-7{fill:#fff;}.cls-8{fill:#490b63;}.cls-9{clip-path:url(#clip-path);}.cls-10{clip-path:url(#clip-path-2);}.cls-11{clip-path:url(#clip-path-3);}</style><clipPath id="clip-path"><path class="cls-1" d="M79,49.58a14.84,14.84,0,0,0-6.72,11.65c0,4.29,3,6,6.77,3.86a14.83,14.83,0,0,0,6.73-11.65C85.73,49.16,82.7,47.43,79,49.58Z"/></clipPath><clipPath id="clip-path-2"><path class="cls-1" d="M56.91,62a14.83,14.83,0,0,0-6.73,11.65c0,4.29,3,6,6.78,3.86a14.84,14.84,0,0,0,6.72-11.65C63.67,61.6,60.64,59.87,56.91,62Z"/></clipPath><clipPath id="clip-path-3"><polygon class="cls-1" points="50.18 98.46 85.75 77.92 85.75 73.95 50.18 94.48 50.18 98.46"/></clipPath></defs><title>4-business_opportunities</title><g id="Layer_2" data-name="Layer 2"><g id="NatWest-longform_3-digitisation-desktop"><polygon class="cls-2" points="45 110.22 90 84.24 82.05 93.63 45 115.02 45 110.22"/><polygon class="cls-3" points="45 110.22 90 84.24 90 31.48 45 57.46 45 110.22"/><polygon class="cls-4" points="45 57.46 90 31.48 45 5.52 0 31.5 45 57.46"/><polygon class="cls-5" points="7.95 25.01 45 3.62 82.05 25 45 46.38 7.95 25.01"/><polygon class="cls-6" points="45 110.22 0 84.24 0 31.48 45 57.46 45 110.22"/><path class="cls-3" d="M24,73.51c1.48-.85,2.4-2.67,2.4-5.26,0-5.19-3.63-11.51-8.15-14.12-2.08-1.2-4-1.41-5.43-.77l-2.39,1.33L22.29,74.46Z"/><path class="cls-4" d="M18.25,54.13c-2.08-1.2-4-1.41-5.43-.77l-2.39,1.33,3.92,6.54L18.83,65l5.85-3.56A17.3,17.3,0,0,0,18.25,54.13Z"/><path class="cls-6" d="M16.22,55.28c4.52,2.61,8.17,8.93,8.16,14.13s-3.69,7.28-8.21,4.67S8,65.15,8,60,11.7,52.67,16.22,55.28Z"/><path class="cls-7" d="M66.11,77.21l3.69-9.9,3.72,5.62-.1.06Zm3.74-9.38-3.29,8.85,6.63-3.83Z"/><path class="cls-8" d="M76,67.19c-2.93,0-4.9-2.39-4.91-5.95a15.89,15.89,0,0,1,7.31-12.67A7.23,7.23,0,0,1,82,47.49c2.93,0,4.9,2.39,4.92,5.95A15.89,15.89,0,0,1,79.6,66.1,7.25,7.25,0,0,1,76,67.19Z"/><path class="cls-7" d="M79,49.58a14.84,14.84,0,0,0-6.72,11.65c0,4.29,3,6,6.77,3.86a14.83,14.83,0,0,0,6.73-11.65C85.73,49.16,82.7,47.43,79,49.58Z"/><g class="cls-9"><rect class="cls-8" x="78.88" y="46.29" width="0.23" height="22.09"/><rect class="cls-8" x="69.52" y="57.22" width="18.96" height="0.23" transform="translate(-18.08 47.18) rotate(-30)"/><rect class="cls-8" x="66.95" y="57.22" width="24.08" height="0.23" transform="translate(-10.59 96.09) rotate(-59.36)"/><rect class="cls-8" x="78.88" y="45.29" width="0.23" height="24.08" transform="translate(-8.08 101.44) rotate(-62.84)"/></g><path class="cls-7" d="M79,53.71a6.92,6.92,0,0,0-3.15,5.45c0,2,1.42,2.81,3.17,1.8a6.91,6.91,0,0,0,3.14-5.45C82.15,53.51,80.73,52.7,79,53.71Z"/><path class="cls-8" d="M79,55a4.52,4.52,0,0,0-2,3.54c0,1.3.93,1.83,2.06,1.17a4.5,4.5,0,0,0,2-3.54C81,54.85,80.12,54.32,79,55Z"/><path class="cls-8" d="M53.93,79.63C51,79.63,49,77.23,49,73.68A15.9,15.9,0,0,1,56.33,61a7.23,7.23,0,0,1,3.61-1.08c2.93,0,4.9,2.39,4.91,5.95a15.91,15.91,0,0,1-7.31,12.66,7.25,7.25,0,0,1-3.61,1.09Z"/><path class="cls-7" d="M56.91,62a14.83,14.83,0,0,0-6.73,11.65c0,4.29,3,6,6.78,3.86a14.84,14.84,0,0,0,6.72-11.65C63.67,61.6,60.64,59.87,56.91,62Z"/><g class="cls-10"><rect class="cls-8" x="56.82" y="58.73" width="0.23" height="22.09"/><rect class="cls-8" x="47.45" y="69.66" width="18.96" height="0.23" transform="translate(-27.26 37.81) rotate(-30)"/><rect class="cls-8" x="44.89" y="69.66" width="24.08" height="0.23" transform="translate(-32.12 83.21) rotate(-59.36)"/><rect class="cls-8" x="56.82" y="57.73" width="0.23" height="24.08" transform="translate(-31.14 88.57) rotate(-62.84)"/></g><path class="cls-7" d="M56.92,66.15a6.94,6.94,0,0,0-3.14,5.45c0,2,1.42,2.81,3.16,1.8A6.89,6.89,0,0,0,60.09,68C60.08,66,58.67,65.14,56.92,66.15Z"/><path class="cls-8" d="M56.93,67.42a4.5,4.5,0,0,0-2,3.54c0,1.3.93,1.83,2.06,1.17a4.49,4.49,0,0,0,2-3.54C59,67.29,58.06,66.76,56.93,67.42Z"/><polygon class="cls-6" points="49.01 99.99 86.92 78.11 86.92 72.42 49.01 94.3 49.01 99.99"/><polygon class="cls-7" points="50.18 98.46 85.75 77.92 85.75 73.95 50.18 94.48 50.18 98.46"/><g class="cls-11"><rect class="cls-8" x="46.45" y="86.09" width="43.03" height="0.23" transform="translate(-33.99 45.53) rotate(-30)"/><rect class="cls-8" x="81.18" y="75.6" width="0.23" height="5.39"/><rect class="cls-8" x="76.74" y="78.17" width="0.23" height="5.39"/><rect class="cls-8" x="72.29" y="80.73" width="0.23" height="5.39"/><rect class="cls-8" x="67.85" y="83.3" width="0.23" height="5.39"/><rect class="cls-8" x="63.4" y="85.87" width="0.23" height="5.39"/><rect class="cls-8" x="58.96" y="88.43" width="0.23" height="5.39"/><rect class="cls-8" x="54.51" y="91" width="0.23" height="5.39"/></g><polygon class="cls-2" points="45 46.38 45 57.46 90 31.48 82.05 25 45 46.38"/><polygon class="cls-4" points="7.95 25.01 0 31.48 45 57.46 45 46.38 7.95 25.01"/><path class="cls-7" d="M23.6,19.89a3.2,3.2,0,0,0-1.6.41c-1.16.66-1.8,2.07-1.8,4a13.84,13.84,0,0,0,6.26,10.85c1.66,1,3.22,1.11,4.39.45s1.79-2.08,1.8-4a13.82,13.82,0,0,0-6.26-10.84A5.7,5.7,0,0,0,23.6,19.89Zm5.65,16.32a6,6,0,0,1-2.91-.89,14.08,14.08,0,0,1-6.37-11c0-2,.68-3.46,1.91-4.17s2.89-.56,4.62.44h0a14.09,14.09,0,0,1,6.38,11.05c0,2-.69,3.47-1.92,4.18A3.43,3.43,0,0,1,29.25,36.21Z"/><path class="cls-7" d="M29,16.37c-1.16.66-1.8,2.07-1.8,4a13.79,13.79,0,0,0,6.26,10.85c1.66.95,3.22,1.11,4.38.44s1.8-2.07,1.8-4a13.77,13.77,0,0,0-6.26-10.84h0A5.64,5.64,0,0,0,30.55,16,3.08,3.08,0,0,0,29,16.37Zm-.12-.2c1.24-.72,2.88-.56,4.62.44h0a14.09,14.09,0,0,1,6.38,11.05c0,2-.69,3.47-1.92,4.18a3.43,3.43,0,0,1-1.71.44,5.9,5.9,0,0,1-2.91-.89,14.09,14.09,0,0,1-6.38-11C26.92,18.36,27.6,16.87,28.83,16.17Z"/><path class="cls-7" d="M35.89,12.44c-1.15.66-1.79,2.07-1.8,4a13.82,13.82,0,0,0,6.26,10.84c1.67,1,3.22,1.12,4.39.45s1.8-2.07,1.8-4a13.84,13.84,0,0,0-6.26-10.85h0A5.76,5.76,0,0,0,37.49,12,3.13,3.13,0,0,0,35.89,12.44Zm-.11-.21c1.24-.71,2.88-.55,4.62.45h0a14.09,14.09,0,0,1,6.38,11.05c0,2-.69,3.47-1.92,4.18a3.43,3.43,0,0,1-1.72.43,5.88,5.88,0,0,1-2.9-.88,14.09,14.09,0,0,1-6.38-11C33.86,14.42,34.55,12.94,35.78,12.23Z"/><path class="cls-7" d="M42.84,8.51c-1.15.66-1.79,2.07-1.8,4A13.82,13.82,0,0,0,47.3,23.32c1.66,1,3.22,1.12,4.39.45s1.79-2.08,1.8-4A13.84,13.84,0,0,0,47.23,9h0a5.68,5.68,0,0,0-2.79-.85A3.13,3.13,0,0,0,42.84,8.51Zm-.11-.21c1.24-.71,2.88-.55,4.61.45h0A14.08,14.08,0,0,1,53.72,19.8c0,2-.68,3.47-1.92,4.17a3.33,3.33,0,0,1-1.71.44,5.8,5.8,0,0,1-2.9-.89,14,14,0,0,1-6.38-11C40.81,10.49,41.49,9,42.73,8.3Z"/><path class="cls-7" d="M49.79,4.57c-1.16.67-1.8,2.08-1.8,4a13.8,13.8,0,0,0,6.26,10.84c1.66,1,3.22,1.12,4.38.45s1.8-2.08,1.81-4A13.82,13.82,0,0,0,54.17,5h0a5.62,5.62,0,0,0-2.78-.85A3.17,3.17,0,0,0,49.79,4.57Zm-.12-.2c1.24-.71,2.88-.55,4.62.45h0a14.08,14.08,0,0,1,6.38,11c0,2-.69,3.46-1.92,4.17a3.33,3.33,0,0,1-1.71.44,5.9,5.9,0,0,1-2.91-.89,14.06,14.06,0,0,1-6.38-11C47.76,6.56,48.44,5.08,49.67,4.37Z"/><path class="cls-7" d="M58.33.23a3.16,3.16,0,0,0-1.59.41c-1.16.67-1.8,2.08-1.81,4A13.82,13.82,0,0,0,61.2,15.46c1.66,1,3.22,1.12,4.38.45s1.8-2.08,1.8-4A13.84,13.84,0,0,0,61.12,1.09h0A5.65,5.65,0,0,0,58.33.23ZM64,16.55a5.9,5.9,0,0,1-2.9-.89,14.06,14.06,0,0,1-6.38-11c0-2,.69-3.46,1.92-4.17s2.88-.56,4.62.45a14.08,14.08,0,0,1,6.38,11c0,2-.69,3.46-1.92,4.17A3.34,3.34,0,0,1,64,16.55Z"/><path class="cls-7" d="M17.67,55.59h-.23V41.1l.13,0c.07,0,7,1,8.72-5.93l.23.06c-1.6,6.55-7.85,6.21-8.85,6.12Z"/><polygon class="cls-4" points="45 115.02 45 110.22 0 84.24 7.95 93.65 45 115.02"/></g></g></svg>